<svg width="1221" height="1931" viewBox="0 0 1221 1931" fill="none" xmlns="http://www.w3.org/2000/svg">
<g opacity="0.3" filter="url(#filter0_f_1_76)">
<path fill-rule="evenodd" clip-rule="evenodd" d="M495.149 984.085C481.555 1026.79 450.44 1059.46 422.257 1094.29C397.976 1124.3 372.099 1151.05 341.268 1174.25C306.925 1200.1 274.538 1236.07 231.608 1237.78C188.539 1239.5 152.37 1207.55 116.79 1183.2C83.3368 1160.3 59.5169 1128.74 30.6796 1100.23C-8.78865 1061.21 -76.9027 1039.08 -84.6233 984.085C-92.087 930.923 -37.9074 889.66 -4.81373 847.42C24.5163 809.984 57.2546 776.827 97.5358 751.582C138.899 725.66 183.329 692.153 231.608 699.255C279.808 706.346 300.303 767.889 344.712 787.943C396.486 811.323 473.649 779.075 508.241 824.176C541.338 867.329 511.651 932.245 495.149 984.085Z" fill="#36FFBA" fill-opacity="0.62"/>
</g>
<defs>
<filter id="filter0_f_1_76" x="-782.664" y="0.945068" width="2003.23" height="1934.25" filterUnits="userSpaceOnUse" color-interpolation-filters="sRGB">
<feFlood flood-opacity="0" result="BackgroundImageFix"/>
<feBlend mode="normal" in="SourceGraphic" in2="BackgroundImageFix" result="shape"/>
<feGaussianBlur stdDeviation="348.672" result="effect1_foregroundBlur_1_76"/>
</filter>
</defs>
</svg>
